<?xml version="1.0" encoding="UTF-8" standalone="no"?>
<svg
   xmlns:dc="http://purl.org/dc/elements/1.1/"
   xmlns:cc="http://creativecommons.org/ns#"
   xmlns:rdf="http://www.w3.org/1999/02/22-rdf-syntax-ns#"
   xmlns:svg="http://www.w3.org/2000/svg"
   xmlns="http://www.w3.org/2000/svg"
   xmlns:sodipodi="http://sodipodi.sourceforge.net/DTD/sodipodi-0.dtd"
   xmlns:inkscape="http://www.inkscape.org/namespaces/inkscape"
   version="1.1"
   id="svg2"
   xml:space="preserve"
   width="170.07867"
   height="170.07867"
   viewBox="0 0 170.07867 170.07867"
   sodipodi:docname="Бриошь лого №7- 45мм (1).ai"><metadata
     id="metadata8"><rdf:RDF><cc:Work
         rdf:about=""><dc:format>image/svg+xml</dc:format><dc:type
           rdf:resource="http://purl.org/dc/dcmitype/StillImage" /></cc:Work></rdf:RDF></metadata><defs
     id="defs6"><clipPath
       clipPathUnits="userSpaceOnUse"
       id="clipPath18"><path
         d="M 0,127.559 H 127.559 V 0 H 0 Z"
         id="path16" /></clipPath></defs><sodipodi:namedview
     pagecolor="#ffffff"
     bordercolor="#666666"
     borderopacity="1"
     objecttolerance="10"
     gridtolerance="10"
     guidetolerance="10"
     inkscape:pageopacity="0"
     inkscape:pageshadow="2"
     inkscape:window-width="640"
     inkscape:window-height="480"
     id="namedview4" /><g
     id="g10"
     inkscape:groupmode="layer"
     inkscape:label="Бриошь лого №7- 45мм (1)"
     transform="matrix(1.3333333,0,0,-1.3333333,0,170.07867)"><g
       id="g12"><g
         id="g14"
         clip-path="url(#clipPath18)"><g
           id="g20"
           transform="translate(4.6469,20.9973)"><path
             d="m 0,0 5.363,-3.755 c 3.946,-2.763 8.089,-2.297 10.768,1.529 3.607,5.152 -0.493,8.787 -2.963,10.516 l -2.711,1.898 4.366,6.237 7.742,-5.422 1.477,2.109 -9.972,6.983 z M 8.98,8.08 11.33,6.435 C 12.565,5.569 13.77,4.726 14.345,3.56 15.204,1.836 14.517,0.342 13.841,-0.622 12.829,-2.068 11.684,-2.613 10.783,-2.746 8.858,-3.059 7.201,-1.898 6.297,-1.266 L 3.706,0.548 Z m 13.482,-18.991 c 0.566,-1.773 1.811,-3.402 4.125,-4.248 4.352,-1.591 8.174,1.046 9.613,4.983 1.414,3.869 0.291,8.509 -4.2,10.15 -1.037,0.379 -3.301,0.932 -5.764,-0.557 l 0.733,2.004 -2.488,0.909 -8.192,-22.419 2.487,-0.908 z m 4.588,-1.911 c -2.937,1.073 -3.931,4.137 -2.858,7.074 1.263,3.454 4.409,4.458 6.724,3.612 2.314,-0.845 4.016,-3.582 2.729,-7.105 -1.048,-2.867 -3.694,-4.642 -6.595,-3.581 m 15.95,9.286 -1.668,-16.243 11.539,10.128 -1.04,-10.135 2.633,-0.271 1.68,16.354 -11.54,-10.128 1.03,10.024 z m 27.502,-16.013 c 4.587,0.662 7.525,4.505 6.863,9.092 -0.662,4.586 -4.536,7.482 -9.159,6.815 -4.623,-0.668 -7.519,-4.542 -6.857,-9.128 0.662,-4.585 4.567,-7.441 9.153,-6.779 m -1.96,13.577 c 2.767,0.4 5.593,-1.162 6.129,-4.875 0.531,-3.675 -1.775,-5.978 -4.505,-6.372 -2.693,-0.389 -5.588,1.125 -6.124,4.838 -0.53,3.677 1.734,6.01 4.5,6.409 m 17.651,-10.148 18.213,7.541 -5.838,14.101 -2.447,-1.012 4.91,-11.86 -5.437,-2.251 -4.909,11.86 -2.447,-1.013 4.91,-11.859 -5.437,-2.251 -4.91,11.859 -2.446,-1.014 z m 25.392,12.954 4.067,3.448 c 1.151,0.976 2.389,2.073 2.59,3.884 0.101,0.904 -0.103,2.227 -1.174,3.488 -0.999,1.179 -2.137,1.612 -2.966,1.68 -1.942,0.187 -3.472,-0.967 -4.51,-1.847 l -2.076,-1.759 -3.782,4.46 -2.019,-1.712 z m 0.498,3.508 -3.045,3.591 1.908,1.617 c 0.645,0.547 1.29,1.094 2.08,1.185 0.899,0.135 1.538,-0.336 1.967,-0.84 0.76,-0.898 0.612,-1.747 0.503,-2.129 -0.24,-0.685 -0.861,-1.26 -1.534,-1.831 z"
             style="fill:#5fb2af;fill-opacity:1;fill-rule:nonzero;stroke:none"
             id="path22" /></g><g
           id="g24"
           transform="translate(74.3095,115.5432)"><path
             d="M 0,0 C 0.647,-1.397 1.836,-2.606 3.823,-3.063 7.559,-3.92 10.424,-1.362 11.2,2.018 11.962,5.339 10.563,9.03 6.708,9.915 5.818,10.119 3.903,10.341 2.035,8.865 l 0.395,1.72 -2.136,0.49 -4.416,-19.243 2.135,-0.49 z M 3.962,-1.097 C 1.442,-0.519 0.31,1.896 0.889,4.415 1.569,7.381 4.049,8.528 6.035,8.072 8.022,7.616 9.7,5.546 9.006,2.521 8.441,0.061 6.453,-1.668 3.962,-1.097"
             style="fill:#58262c;fill-opacity:1;fill-rule:nonzero;stroke:none"
             id="path26" /></g><g
           id="g28"
           transform="translate(65.2065,125.5471)"><path
             d="m 0,0 c -0.594,0.749 -1.929,2.061 -4.362,2.011 -3.224,-0.067 -6.097,-2.376 -6.009,-6.726 0.091,-4.44 3.087,-6.631 6.28,-6.565 2.22,0.045 3.565,1.259 4.276,2.217 l 0.036,-1.764 2.19,0.045 -0.258,12.621 -2.19,-0.044 z m -4.079,0.069 c 1.947,0.039 4.226,-1.343 4.293,-4.598 0.051,-2.494 -1.424,-4.745 -4.101,-4.8 -2.615,-0.054 -4.178,1.953 -4.233,4.66 -0.063,3.072 1.882,4.694 4.041,4.738"
             style="fill:#58262c;fill-opacity:1;fill-rule:nonzero;stroke:none"
             id="path30" /></g><g
           id="g32"
           transform="translate(40.3339,124.2679)"><path
             d="m 0,0 2.824,-12.305 2.135,0.49 -1.096,4.774 0.51,0.771 6.042,-4.293 2.787,0.639 -7.555,5.445 4.079,6.71 L 7.116,1.633 3.292,-4.551 2.135,0.49 Z"
             style="fill:#58262c;fill-opacity:1;fill-rule:nonzero;stroke:none"
             id="path34" /></g><g
           id="g36"
           transform="translate(87.2787,110.2356)"><path
             d="M 0,0 1.945,-1.007 4.45,3.827 9.744,1.084 7.239,-3.751 9.184,-4.759 14.992,6.451 13.047,7.459 10.668,2.867 5.374,5.61 7.753,10.202 5.809,11.21 Z"
             style="fill:#58262c;fill-opacity:1;fill-rule:nonzero;stroke:none"
             id="path38" /></g><g
           id="g40"
           transform="translate(36.411,113.9973)"><path
             d="m 0,0 c 0.008,-0.667 -0.136,-1.438 -0.456,-2.124 -0.405,-0.859 -1.022,-1.481 -1.96,-1.917 -1.985,-0.923 -4.318,-0.162 -5.449,2.197 l 8.91,4.142 c -0.649,1.543 -1.884,3.115 -3.076,3.803 -1.151,0.672 -3.071,1.122 -5.305,0.084 -3.448,-1.604 -4.313,-5.226 -2.724,-8.647 1.975,-4.248 5.679,-4.64 8.437,-3.357 1.463,0.679 2.541,1.751 3.153,3.176 0.336,0.793 0.512,1.714 0.548,2.502 z m -8.496,-0.125 c -0.491,1.852 0.298,3.762 1.981,4.544 1.682,0.782 3.585,0.224 4.75,-1.415 z"
             style="fill:#58262c;fill-opacity:1;fill-rule:nonzero;stroke:none"
             id="path42" /></g><g
           id="g44"
           transform="translate(98.7465,104.0188)"><path
             d="m 0,0 1.995,-1.691 6.023,1.552 1.021,-0.865 -3.285,-3.875 1.67,-1.416 8.164,9.628 -3.364,2.853 C 11.273,6.992 10.209,7.854 8.705,7.774 7.758,7.739 6.784,7.249 6.017,6.344 5.25,5.439 5.07,4.475 5.15,3.77 5.275,2.506 6.241,1.528 6.357,1.43 Z M 10.22,0.388 8.642,1.726 C 8.248,2.061 7.625,2.549 7.393,3.263 7.192,3.872 7.341,4.424 7.773,4.935 8.305,5.562 8.944,5.657 9.38,5.606 9.905,5.521 10.432,5.153 11.104,4.583 l 1.555,-1.318 z"
             style="fill:#58262c;fill-opacity:1;fill-rule:nonzero;stroke:none"
             id="path46" /></g><g
           id="g48"
           transform="translate(10.3236,106.9114)"><path
             d="m 0,0 8.164,-9.629 1.67,1.417 -6.865,8.098 4.408,3.737 6.866,-8.098 1.671,1.417 -8.165,9.629 z"
             style="fill:#58262c;fill-opacity:1;fill-rule:nonzero;stroke:none"
             id="path50" /></g><g
           id="g52"
           transform="translate(74.3241,95.0481)"><path
             d="m 0,0 c -4.548,2.781 -23.48,3.35 -20.202,-5.16 1.058,-2.749 13.641,-4.742 16.749,-4.717 2.108,0.017 4.322,0.3 6.267,1.132 0.189,0.081 0.207,-0.001 0.407,-0.122 L 3.088,-9.12 3.104,-9.146 3.137,-9.13 3.127,-9.16 c -2.449,-5.386 -24.312,-4.558 -27.667,1.624 -3.368,6.204 0.516,12.022 6.412,14.32 C -12.49,8.982 5.592,10.309 7.089,1.858 7.221,-0.199 5.661,-1.974 3.604,-2.106 2.041,-2.207 0.64,-1.33 0,0"
             style="fill:#f2b761;fill-opacity:1;fill-rule:evenodd;stroke:none"
             id="path54" /></g><g
           id="g56"
           transform="translate(51.5043,84.0804)"><path
             d="m 0,0 c -3.8,-2.221 -4.045,-2.142 -8.32,-3.359 -4.013,-1.143 -8.889,-2.552 -8.218,-6.144 0.499,-2.667 5.563,-1.281 7.686,-0.254 2.458,1.191 4.907,-0.004 4.423,-2.351 -0.762,-3.7 -1.708,-5.333 2.954,-7.814 2.848,-1.515 7.829,-1.827 11.213,-1.442 3.581,0.407 5.253,7.438 7.204,8.034 1.51,0.46 5.726,-1.3 8.4,-1.691 1.407,-0.208 6.9,-0.936 7.876,0.451 2.228,3.166 -2.411,3.902 2.626,4.846 1.233,0.231 6.849,1.565 7.326,2.645 0.313,0.707 0.251,2.257 0.268,2.845 l 0.006,-0.012 c 0.712,0.93 -13.368,5.172 -13.838,5.375 l -0.598,0.325 c 3.117,-0.151 13.858,-2.696 16.055,-4.618 1.149,-1.005 0.831,-3.52 0.493,-4.463 -0.644,-1.796 -5.746,-3.328 -8.722,-4.01 0.037,-0.152 0.064,-0.318 0.087,-0.511 0.352,-2.997 -1.144,-5.259 -5.793,-5.601 -4.966,-0.365 -7.985,0.371 -12.061,1.427 -1.47,-3.158 -3.995,-7.74 -9.14,-8.13 -6.33,-0.479 -11.694,-0.136 -16.421,3.064 -3.788,2.564 -3.911,4.44 -3.576,7.012 -5.972,-1.355 -12.273,0.457 -12.303,5.436 -0.048,8.245 11.734,8.292 17.44,11.664 1.105,0.927 3.105,1.069 4.467,0.317 C 0.896,2.289 1.105,0.927 0,0 m -5.585,-12.652 c 0.065,0.028 0.13,0.059 0.193,0.092 z"
             style="fill:#5fb2af;fill-opacity:1;fill-rule:evenodd;stroke:none"
             id="path58" /></g><g
           id="g60"
           transform="translate(41.3651,62.6536)"><path
             d="m 0,0 c 2.6,-3.252 3.296,-5.027 4.459,-8.869 0.712,-2.353 2.072,-8.047 1.918,-10.343 L 5.91,-21.349 c -1.621,2.471 -0.901,1.157 -2.192,4.124 -1.713,3.937 -4.13,10.107 -7.184,13.048 -1.153,0.957 -1.312,2.668 -0.355,3.822 C -2.864,0.798 -1.153,0.957 0,0"
             style="fill:#58262c;fill-opacity:1;fill-rule:evenodd;stroke:none"
             id="path62" /></g><g
           id="g64"
           transform="translate(90.1606,57.1643)"><path
             d="m 0,0 c -5.119,-4.444 -10.524,-17.89 -11.746,-18.902 l -1.058,-0.55 c -0.166,7.423 4.034,18.705 8.825,24.135 1.293,1.098 3.232,0.94 4.331,-0.353 C 1.451,3.037 1.293,1.099 0,0"
             style="fill:#58262c;fill-opacity:1;fill-rule:evenodd;stroke:none"
             id="path66" /></g><g
           id="g68"
           transform="translate(78.477,54.6419)"><path
             d="m 0,0 c -1.101,-2.903 -5.216,-15.643 -6.797,-16.98 l -1.046,-0.486 c -0.614,3.829 1.15,15.182 1.973,19.281 0.501,1.622 2.222,2.529 3.843,2.028 C -0.406,3.342 0.501,1.621 0,0"
             style="fill:#58262c;fill-opacity:1;fill-rule:evenodd;stroke:none"
             id="path70" /></g><g
           id="g72"
           transform="translate(55.0678,53.9915)"><path
             d="m 0,0 c 0.171,-3.178 1.124,-12.517 0.547,-14.968 l -0.852,-2.077 -1.228,1.826 c -1.23,2.392 -3.831,11.446 -4.556,14.4 -0.227,1.681 0.953,3.227 2.635,3.454 C -1.772,2.861 -0.226,1.682 0,0"
             style="fill:#58262c;fill-opacity:1;fill-rule:evenodd;stroke:none"
             id="path74" /></g><g
           id="g76"
           transform="translate(67.0322,51.0579)"><path
             d="m 0,0 c -0.325,-2.192 -1.646,-11.771 -2.452,-13.688 l -1.18,-1.913 -0.998,2.097 c -0.743,2.325 -1.356,11.728 -1.499,14.142 0.123,2.426 1.594,4.251 3.287,4.075 C -1.15,4.537 0.123,2.427 0,0"
             style="fill:#58262c;fill-opacity:1;fill-rule:evenodd;stroke:none"
             id="path78" /></g><g
           id="g80"
           transform="translate(48.5561,39.3499)"><path
             d="m 0,0 c 0.845,-0.864 2.819,-3.457 4.094,-3.155 4.68,1.104 5.072,-6.248 11.607,-2.106 2.008,1.273 2.008,-0.333 4.699,-0.537 6.612,-0.502 0.931,3.177 8.237,2.33 1.178,-0.136 1.382,4.492 1.457,5.643 0.504,-0.484 0.489,-1.733 0.491,-2.43 0.019,-7.796 -4.314,-2.832 -5.291,-5.616 C 24.229,-8.907 18.767,-8.412 17,-7.315 l -0.058,-0.04 c -7.591,-5.489 -9.5,1.544 -12.076,0.961 -3.012,-0.682 -4.049,1.058 -6.676,3.535 -0.614,0.642 -0.706,1.804 -0.206,2.594 C -1.516,0.525 -0.614,0.644 0,0"
             style="fill:#58262c;fill-opacity:1;fill-rule:evenodd;stroke:none"
             id="path82" /></g></g></g></g></svg>
